<svg xmlns="http://www.w3.org/2000/svg" xmlns:xlink="http://www.w3.org/1999/xlink" viewBox="0 0 173.79 37.17"><defs><style>.cls-1{fill:#5cddff;}.cls-2{fill:url(#linear-gradient);}.cls-3{fill:#4d7882;}.cls-4{fill:url(#linear-gradient-2);}.cls-5{font-size:24.1px;fill:#fff;font-family:KohinoorDevanagari-Bold, Kohinoor Devanagari;}.cls-6{font-weight:700;}.cls-7,.cls-8,.cls-9{font-family:KohinoorDevanagari-Light, Kohinoor Devanagari;}.cls-8{letter-spacing:-0.01em;}.cls-9{letter-spacing:0em;}</style><linearGradient id="linear-gradient" x1="20.04" y1="-0.48" x2="13.04" y2="30.77" gradientUnits="userSpaceOnUse"><stop offset="0.01" stop-color="#5cddff"/><stop offset="0.38" stop-color="#96ace3"/><stop offset="1" stop-color="#ff55b1"/></linearGradient><linearGradient id="linear-gradient-2" x1="29" y1="-3" x2="5.33" y2="24.33" gradientUnits="userSpaceOnUse"><stop offset="0.01" stop-color="#eb7a44"/><stop offset="0.55" stop-color="#f6667e"/><stop offset="1" stop-color="#ff55b1"/></linearGradient></defs><title>adminiverse logo</title><g id="Layer_2" data-name="Layer 2"><g id="Layer_1-2" data-name="Layer 1"><path class="cls-1" d="M32.82,19a16.49,16.49,0,0,1-18,13.94h-.13a.54.54,0,0,1-.29-.95c2.75-2.26,5.76-5,8.81-8a126.08,126.08,0,0,0,8.7-9.6.53.53,0,0,1,.94.28A17,17,0,0,1,32.82,19Z"/><path class="cls-2" d="M35.88,3a27.5,27.5,0,0,1-4.19,7.06A113.91,113.91,0,0,1,21.25,21.92a117.67,117.67,0,0,1-11,9.83C6.9,34.29,4.13,36,2.34,36.54c-.91.29-1.57.27-1.92-.08-1-1,.64-4.31,4-8.77A16.5,16.5,0,0,1,27.8,4.47c4.07-2.92,7.08-4.29,8-3.38C36.15,1.44,36.16,2.1,35.88,3Z"/><path class="cls-3" d="M31.41,10.44A114.85,114.85,0,0,1,21.25,21.92c-2.25,2.24-4.46,4.31-6.57,6.14A14,14,0,1,1,25.85,2.91c.21.13.4.28.6.43l.48.38A14,14,0,0,1,31.41,10.44Z"/><path class="cls-4" d="M35.88,3a27.5,27.5,0,0,1-4.19,7.06l-.28.37A114.85,114.85,0,0,1,21.25,21.92c-2.25,2.24-4.46,4.31-6.57,6.14A14,14,0,1,1,25.85,2.91c.21.13.4.28.6.43l.48.38c.3.23.59.49.87.75,4.07-2.92,7.08-4.29,8-3.38C36.15,1.44,36.16,2.1,35.88,3Z"/><text class="cls-5" transform="translate(38.93 25.07)"><tspan class="cls-6">admin</tspan><tspan class="cls-7" x="71.58" y="0">ive</tspan><tspan class="cls-8" x="102.6" y="0">r</tspan><tspan class="cls-9" x="110.68" y="0">se</tspan></text></g></g></svg>