<svg xmlns="http://www.w3.org/2000/svg" viewBox="0 0 294.766 299.505">
  <defs>
    <style>
      .cls-1 {
        fill: #1c3475;
      }
    </style>
  </defs>
  <g id="adminiverse_logo" data-name="adminiverse logo" transform="translate(-0.129 -0.667)">
    <g id="Layer_1" data-name="Layer 1" transform="translate(0.129 0.668)">
      <g id="Group_5" data-name="Group 5">
        <path id="Path_22" data-name="Path 22" class="cls-1" d="M166.823,53.612a135.214,135.214,0,0,1-147.6,114.3H18.162a4.428,4.428,0,0,1-2.378-7.79c22.549-18.531,47.231-41,72.24-65.6a1033.8,1033.8,0,0,0,71.338-78.718,4.346,4.346,0,0,1,7.708,2.3A139.4,139.4,0,0,1,166.823,53.612Z" transform="translate(101.232 100.418)"/>
        <path id="Path_23" data-name="Path 23" class="cls-1" d="M293.276,23.049a225.494,225.494,0,0,1-34.357,57.89,934.029,934.029,0,0,1-85.605,97.249,964.9,964.9,0,0,1-90.2,80.6c-27.469,20.828-50.182,34.849-64.86,39.277-7.462,2.378-12.874,2.214-15.744-.656-8.2-8.2,5.248-35.341,32.8-71.912A135.3,135.3,0,0,1,227.022,35.1c33.373-23.943,58.054-35.177,65.6-27.715C295.49,10.257,295.572,15.669,293.276,23.049Z" transform="translate(-0.129 -0.215)"/>
        <path id="Path_24" data-name="Path 24" class="cls-1" d="M229.454,82.465A941.724,941.724,0,0,1,146.145,176.6c-18.449,18.367-36.571,35.341-53.872,50.346A114.8,114.8,0,1,1,183.864,20.721c1.722,1.066,3.28,2.3,4.92,3.526l3.936,3.116a114.8,114.8,0,0,1,36.735,55.1Z" transform="translate(27.039 1.375)"/>
        <path id="Path_25" data-name="Path 25" class="cls-1" d="M266.107,21.459a225.493,225.493,0,0,1-34.357,57.89l-2.3,3.034A941.743,941.743,0,0,1,146.145,176.6c-18.449,18.368-36.571,35.341-53.872,50.347A114.8,114.8,0,1,1,183.864,20.721c1.722,1.066,3.28,2.3,4.92,3.526l3.936,3.116c2.46,1.886,4.838,4.018,7.134,6.15C233.226,9.57,257.907-1.664,265.451,5.8,268.321,8.668,268.4,14.079,266.107,21.459Z" transform="translate(27.039 1.375)"/>
      </g>
    </g>
  </g>
</svg>
