<svg xmlns="http://www.w3.org/2000/svg" xmlns:xlink="http://www.w3.org/1999/xlink" viewBox="0 0 172.22 36.74"><defs><style>.cls-1{fill:#5cddff;}.cls-2{fill:url(#linear-gradient);}.cls-3{fill:#4d7882;}.cls-4{fill:url(#linear-gradient-2);}.cls-5{fill:#fff;}</style><linearGradient id="linear-gradient" x1="20.04" y1="-0.48" x2="13.04" y2="30.77" gradientUnits="userSpaceOnUse"><stop offset="0.01" stop-color="#5cddff"/><stop offset="0.38" stop-color="#96ace3"/><stop offset="1" stop-color="#ff55b1"/></linearGradient><linearGradient id="linear-gradient-2" x1="29" y1="-3" x2="5.33" y2="24.33" gradientUnits="userSpaceOnUse"><stop offset="0.01" stop-color="#eb7a44"/><stop offset="0.55" stop-color="#f6667e"/><stop offset="1" stop-color="#ff55b1"/></linearGradient></defs><title>adminiverse logo converted</title><g id="Layer_2" data-name="Layer 2"><g id="Layer_1-2" data-name="Layer 1"><path class="cls-1" d="M32.82,19a16.49,16.49,0,0,1-18,13.94h-.13a.54.54,0,0,1-.29-.95c2.75-2.26,5.76-5,8.81-8a126.08,126.08,0,0,0,8.7-9.6.53.53,0,0,1,.94.28A17,17,0,0,1,32.82,19Z"/><path class="cls-2" d="M35.88,3a27.5,27.5,0,0,1-4.19,7.06A113.91,113.91,0,0,1,21.25,21.92a117.67,117.67,0,0,1-11,9.83C6.9,34.29,4.13,36,2.34,36.54c-.91.29-1.57.27-1.92-.08-1-1,.64-4.31,4-8.77A16.5,16.5,0,0,1,27.8,4.47c4.07-2.92,7.08-4.29,8-3.38C36.15,1.44,36.16,2.1,35.88,3Z"/><path class="cls-3" d="M31.41,10.44A114.85,114.85,0,0,1,21.25,21.92c-2.25,2.24-4.46,4.31-6.57,6.14A14,14,0,1,1,25.85,2.91c.21.13.4.28.6.43l.48.38A14,14,0,0,1,31.41,10.44Z"/><path class="cls-4" d="M35.88,3a27.5,27.5,0,0,1-4.19,7.06l-.28.37A114.85,114.85,0,0,1,21.25,21.92c-2.25,2.24-4.46,4.31-6.57,6.14A14,14,0,1,1,25.85,2.91c.21.13.4.28.6.43l.48.38c.3.23.59.49.87.75,4.07-2.92,7.08-4.29,8-3.38C36.15,1.44,36.16,2.1,35.88,3Z"/><path class="cls-5" d="M50.36,15.72v5.45c0,.77.29,1.1.94,1.1h.39v2.51a3.35,3.35,0,0,1-1.81.46,2.53,2.53,0,0,1-2.46-1.47h-.1a4.07,4.07,0,0,1-3.47,1.52,3.72,3.72,0,0,1-4-3.76c0-3.14,2.83-4.58,7.12-4.37V16.1a1.73,1.73,0,0,0-2-2,2.37,2.37,0,0,0-2.33,1.54l-2.58-1.91A5.65,5.65,0,0,1,45,11.21C48.43,11.21,50.36,12.41,50.36,15.72Zm-3.42,3.9c-2.39-.17-3.57.39-3.57,1.57a1.31,1.31,0,0,0,1.47,1.33,2.64,2.64,0,0,0,2.1-1Z"/><path class="cls-5" d="M61.23,6.8h3.62V25.07H62L61.42,24h-.09A4.67,4.67,0,0,1,58,25.29c-2.87,0-5-1.88-5-6.32,0-5.74,3.09-7.59,6-7.59a6.94,6.94,0,0,1,2.24.29Zm.1,14.46V14.8a3.51,3.51,0,0,0-1.81-.48c-1.5,0-2.8.65-2.8,4.34,0,2.65,1,3.76,2.37,3.76A2.65,2.65,0,0,0,61.33,21.26Z"/><path class="cls-5" d="M82.9,11.14c2.68,0,4.2,1.42,4.2,4.53v9.4H83.45V16.32c0-1.59-.81-2.12-1.76-2.12a2.53,2.53,0,0,0-2.26,1.57v9.3H75.79V16.59c0-1.6-.68-2.39-1.93-2.39a2.44,2.44,0,0,0-2.1,1.61v9.26H68.12V11.45h3l.6,1.28h.1a4.5,4.5,0,0,1,3.59-1.59c2.08,0,2.92.86,3.4,1.83h.1A4.91,4.91,0,0,1,82.9,11.14Z"/><path class="cls-5" d="M92.18,5.74a2.09,2.09,0,0,1,2.14,2.17,2.11,2.11,0,1,1-2.14-2.17Zm-1.76,5.71h3.64V25.07H90.42Z"/><path class="cls-5" d="M108.93,25.07h-3.64V16.42c0-1.4-.65-2.22-1.88-2.22a2.51,2.51,0,0,0-2.34,1.61v9.26H97.43V11.45h2.85l.72,1.28h.1a4.86,4.86,0,0,1,3.66-1.62c2.65,0,4.17,1.47,4.17,4.53Z"/><path class="cls-5" d="M114,7a1.16,1.16,0,0,1,1.18,1.19A1.17,1.17,0,1,1,114,7Zm-.58,5.07h1.4v13h-1.4Z"/><path class="cls-5" d="M122,20.3c.38,1.13.7,2.26,1,3.4h.1c.31-1.14.68-2.29,1-3.4l2.72-8.22h1.5l-4.49,13h-1.66l-4.49-13h1.57Z"/><path class="cls-5" d="M139.52,24.13a7,7,0,0,1-3.91,1.09c-3.59,0-5.57-1.79-5.57-6.71s2.7-6.63,5.35-6.63c3,0,4.58,2,4.58,5,0,.63,0,1.45-.12,2.22h-8.39c.2,3.52,1.64,4.77,4.34,4.77a5.31,5.31,0,0,0,3.06-.94Zm-8.06-6.29h7.07c0-.34,0-.68,0-.87,0-2.41-1-3.78-3.32-3.78C133.49,13.19,131.66,14.25,131.46,17.84Z"/><path class="cls-5" d="M149.71,13.52a5.14,5.14,0,0,0-1.45-.21A3.34,3.34,0,0,0,145,15.16v9.91h-1.39v-13h1L145,13.4h.1a4,4,0,0,1,3.26-1.52,5.63,5.63,0,0,1,1.37.15Z"/><path class="cls-5" d="M151.27,15.38c0-1.81,1.52-3.5,4.34-3.5a5.24,5.24,0,0,1,3.55,1.26l-.92,1.06a3.82,3.82,0,0,0-2.67-1c-2,0-2.9,1-2.9,2.17,0,3.2,6.68,1.88,6.68,6.31,0,1.81-1.54,3.62-4.48,3.62a6.34,6.34,0,0,1-4.41-1.57l.91-1.11A4.93,4.93,0,0,0,154.94,24c2,0,3-1.06,3-2.32C158,18.44,151.27,19.79,151.27,15.38Z"/><path class="cls-5" d="M171.76,24.13a6.94,6.94,0,0,1-3.9,1.09c-3.59,0-5.57-1.79-5.57-6.71s2.7-6.63,5.35-6.63c3,0,4.58,2,4.58,5,0,.63-.05,1.45-.12,2.22h-8.39c.19,3.52,1.64,4.77,4.34,4.77a5.34,5.34,0,0,0,3.06-.94Zm-8-6.29h7.07c0-.34,0-.68,0-.87,0-2.41-1-3.78-3.33-3.78C165.74,13.19,163.9,14.25,163.71,17.84Z"/></g></g></svg>