<svg xmlns="http://www.w3.org/2000/svg" viewBox="0 0 197.02 127.81"><defs><style>.cls-1{opacity:0.9;}.cls-1,.cls-6{isolation:isolate;}.cls-2{fill:#ffad7f;}.cls-3{fill:#5cddff;}.cls-4{fill:#4d7882;}.cls-5{fill:#fff;}.cls-7{fill:none;}</style></defs><title>chart</title><g id="Layer_2" data-name="Layer 2"><g id="Layer_1-2" data-name="Layer 1"><g id="Group_19" data-name="Group 19"><g id="Intersection_1" data-name="Intersection 1" class="cls-1"><path class="cls-2" d="M70,64.08a71.37,71.37,0,0,1,30.77-28.52,71.35,71.35,0,0,1,30.76,28.52A71.2,71.2,0,0,1,100.71,92.6,71.23,71.23,0,0,1,70,64.08Z"/></g><g id="Group_16" data-name="Group 16"><g id="Group_5" data-name="Group 5"><g id="Path_22" data-name="Path 22"><path class="cls-3" d="M112,65.49A12.12,12.12,0,0,1,98.77,75.73h-.1a.4.4,0,0,1-.35-.45.35.35,0,0,1,.14-.25c2-1.66,4.23-3.68,6.47-5.88a92.75,92.75,0,0,0,6.39-7.05.38.38,0,0,1,.54-.06.41.41,0,0,1,.15.26A12.61,12.61,0,0,1,112,65.49Z"/></g><g id="Path_23" data-name="Path 23"><path class="cls-3" d="M114.24,53.74a20.11,20.11,0,0,1-3.08,5.18,82.39,82.39,0,0,1-7.67,8.71,85,85,0,0,1-8.08,7.22,22.22,22.22,0,0,1-5.81,3.52c-.67.22-1.15.2-1.41-.05-.73-.74.47-3.17,2.94-6.45A12.12,12.12,0,0,1,108.3,54.81c3-2.14,5.2-3.15,5.88-2.48C114.44,52.59,114.44,53.07,114.24,53.74Z"/></g><g id="Path_24" data-name="Path 24"><path class="cls-4" d="M111,59.2a84,84,0,0,1-7.46,8.43c-1.65,1.65-3.27,3.17-4.82,4.51a10.28,10.28,0,1,1,8.2-18.47l.44.32.35.27A10.32,10.32,0,0,1,111,59.2Z"/></g><g id="Path_25" data-name="Path 25"><path class="cls-5" d="M114.24,53.74a20.28,20.28,0,0,1-3.08,5.18l-.21.27a84.13,84.13,0,0,1-7.46,8.44c-1.65,1.64-3.27,3.16-4.82,4.51a10.28,10.28,0,1,1,4.72-20,10.65,10.65,0,0,1,3.48,1.54l.44.32.35.28c.22.17.43.36.64.55,3-2.14,5.2-3.15,5.87-2.48C114.44,52.59,114.45,53.07,114.24,53.74Z"/></g></g></g><g id="Flexible" class="cls-6"><g class="cls-6"><path class="cls-5" d="M151.37,2.72v2h3.83v2h-3.83v3.85H149V.67h6.52V2.72Z"/><path class="cls-5" d="M156.27,10.58V0h2.33V10.58Z"/><path class="cls-5" d="M166.63,7.18v.28a2.28,2.28,0,0,1,0,.27h-5.05a1.23,1.23,0,0,0,.17.53,1.49,1.49,0,0,0,.38.41,2,2,0,0,0,.52.28,2,2,0,0,0,.59.09,1.88,1.88,0,0,0,.93-.2,1.82,1.82,0,0,0,.61-.52l1.6,1a3.16,3.16,0,0,1-1.3,1.1,4.22,4.22,0,0,1-1.87.39,4.3,4.3,0,0,1-1.48-.25,3.53,3.53,0,0,1-1.22-.71,3.28,3.28,0,0,1-.83-1.16,3.84,3.84,0,0,1-.3-1.56,4,4,0,0,1,.29-1.55,3.52,3.52,0,0,1,.8-1.18,3.65,3.65,0,0,1,1.19-.75,4.24,4.24,0,0,1,1.49-.26,3.61,3.61,0,0,1,1.41.26,3,3,0,0,1,1.11.75,3.61,3.61,0,0,1,.72,1.19A4.57,4.57,0,0,1,166.63,7.18Zm-2.12-.88a1.38,1.38,0,0,0-.34-.94,1.3,1.3,0,0,0-1-.39,1.59,1.59,0,0,0-.62.11,1.49,1.49,0,0,0-.49.28,1.37,1.37,0,0,0-.33.43,1.15,1.15,0,0,0-.14.51Z"/><path class="cls-5" d="M171.81,10.58l-1.5-2.14-1.54,2.14h-2.66l2.78-3.65-2.52-3.32h2.68l1.3,1.86,1.32-1.86h2.59l-2.51,3.32,2.76,3.65Z"/><path class="cls-5" d="M177.15,1.39a1.16,1.16,0,0,1-.1.49,1.15,1.15,0,0,1-.28.4,1.51,1.51,0,0,1-.42.27,1.45,1.45,0,0,1-.51.1,1.31,1.31,0,0,1-.94-.37,1.23,1.23,0,0,1-.38-.89,1.19,1.19,0,0,1,.1-.49,1.38,1.38,0,0,1,.28-.4,1.51,1.51,0,0,1,.42-.27,1.27,1.27,0,0,1,.52-.1,1.44,1.44,0,0,1,.51.09,1.51,1.51,0,0,1,.42.27,1.26,1.26,0,0,1,.28.4A1.18,1.18,0,0,1,177.15,1.39Zm-2.46,9.19v-7H177v7Z"/><path class="cls-5" d="M185.88,7.07a4.37,4.37,0,0,1-.23,1.4A3.65,3.65,0,0,1,185,9.65a3.11,3.11,0,0,1-1,.82,3,3,0,0,1-1.4.31,3.18,3.18,0,0,1-1.33-.29,2.2,2.2,0,0,1-1-.82h0v.91h-2.12V0h2.3V4.35h0a3,3,0,0,1,.82-.64,2.64,2.64,0,0,1,1.31-.29,3,3,0,0,1,1.36.29,3.15,3.15,0,0,1,1,.8,3.5,3.5,0,0,1,.65,1.17A4,4,0,0,1,185.88,7.07Zm-2.22,0a2.16,2.16,0,0,0-.1-.66,1.78,1.78,0,0,0-.32-.57,1.65,1.65,0,0,0-.51-.39,1.53,1.53,0,0,0-.72-.16,1.47,1.47,0,0,0-.7.16,1.58,1.58,0,0,0-.52.4,1.77,1.77,0,0,0-.34.58,1.85,1.85,0,0,0,0,1.31,1.77,1.77,0,0,0,.34.58,1.72,1.72,0,0,0,.52.4,1.47,1.47,0,0,0,.7.16,1.53,1.53,0,0,0,.72-.16,1.68,1.68,0,0,0,.51-.4,1.83,1.83,0,0,0,.32-.58A2.22,2.22,0,0,0,183.66,7.07Z"/><path class="cls-5" d="M186.66,10.58V0H189V10.58Z"/><path class="cls-5" d="M197,7.18v.28a2.35,2.35,0,0,1,0,.27H192a1.24,1.24,0,0,0,.18.53,1.32,1.32,0,0,0,.37.41A2,2,0,0,0,193,9a2,2,0,0,0,.6.09,1.83,1.83,0,0,0,1.54-.72l1.59,1a3.07,3.07,0,0,1-1.29,1.1,4.25,4.25,0,0,1-1.87.39,4.36,4.36,0,0,1-1.49-.25,3.62,3.62,0,0,1-1.22-.71,3.41,3.41,0,0,1-.83-1.16,3.84,3.84,0,0,1-.3-1.56,3.86,3.86,0,0,1,.3-1.55,3.38,3.38,0,0,1,.8-1.18A3.55,3.55,0,0,1,192,3.65a4.18,4.18,0,0,1,1.48-.26,3.61,3.61,0,0,1,1.41.26A3,3,0,0,1,196,4.4a3.3,3.3,0,0,1,.72,1.19A4.57,4.57,0,0,1,197,7.18Zm-2.11-.88a1.39,1.39,0,0,0-.35-.94,1.3,1.3,0,0,0-1-.39,1.51,1.51,0,0,0-.61.11,1.39,1.39,0,0,0-.49.28,1.58,1.58,0,0,0-.34.43,1.29,1.29,0,0,0-.14.51Z"/></g></g><g id="Modern" class="cls-6"><g class="cls-6"><path class="cls-5" d="M156,127.58l0-7h0l-2.57,7h-1.68l-2.51-7h0l.05,7H147v-9.91h3.41l2.25,6.36h.06l2.16-6.36h3.46v9.91Z"/><path class="cls-5" d="M166.94,124.07a3.86,3.86,0,0,1-.31,1.55,3.58,3.58,0,0,1-.84,1.17,3.7,3.7,0,0,1-1.23.75,4.16,4.16,0,0,1-1.5.27,4.1,4.1,0,0,1-1.49-.27,3.51,3.51,0,0,1-1.23-.75,3.44,3.44,0,0,1-.84-1.17,3.86,3.86,0,0,1-.31-1.55,3.81,3.81,0,0,1,.31-1.54,3.4,3.4,0,0,1,.84-1.16,3.62,3.62,0,0,1,1.23-.73,4.32,4.32,0,0,1,1.49-.25,4.37,4.37,0,0,1,1.5.25,3.82,3.82,0,0,1,1.23.73,3.53,3.53,0,0,1,.84,1.16A3.81,3.81,0,0,1,166.94,124.07Zm-2.22,0a1.91,1.91,0,0,0-.11-.66,1.78,1.78,0,0,0-.32-.57,1.58,1.58,0,0,0-.52-.39,1.46,1.46,0,0,0-.71-.16,1.53,1.53,0,0,0-.72.16,1.65,1.65,0,0,0-.51.39,2.24,2.24,0,0,0-.31.57,2.23,2.23,0,0,0,0,1.32,2,2,0,0,0,.32.58,1.5,1.5,0,0,0,.52.41,1.46,1.46,0,0,0,.71.16,1.53,1.53,0,0,0,.72-.16,1.57,1.57,0,0,0,.51-.41,1.83,1.83,0,0,0,.32-.58A2.16,2.16,0,0,0,164.72,124.07Z"/><path class="cls-5" d="M173,127.58v-.91h0a2.1,2.1,0,0,1-1,.82,3.1,3.1,0,0,1-1.32.29,3,3,0,0,1-1.4-.31,3.11,3.11,0,0,1-1-.82,3.31,3.31,0,0,1-.65-1.18,4.37,4.37,0,0,1-.23-1.4,4.27,4.27,0,0,1,.23-1.39,3.71,3.71,0,0,1,.66-1.17,3.15,3.15,0,0,1,1-.8,3,3,0,0,1,1.36-.29,2.58,2.58,0,0,1,1.3.29,3,3,0,0,1,.83.64h0V117h2.29v10.58Zm-.08-3.5a1.82,1.82,0,0,0-.12-.65,1.77,1.77,0,0,0-.34-.58,1.58,1.58,0,0,0-.52-.4,1.47,1.47,0,0,0-.7-.16,1.53,1.53,0,0,0-.72.16,1.69,1.69,0,0,0-.52.39,1.76,1.76,0,0,0-.31.57,2.17,2.17,0,0,0-.11.66,2.24,2.24,0,0,0,.11.67,1.8,1.8,0,0,0,.31.58,1.72,1.72,0,0,0,.52.4,1.53,1.53,0,0,0,.72.16,1.47,1.47,0,0,0,.7-.16,1.72,1.72,0,0,0,.52-.4,1.77,1.77,0,0,0,.34-.58A1.84,1.84,0,0,0,172.89,124.08Z"/><path class="cls-5" d="M183.12,124.18v.28a2.28,2.28,0,0,1,0,.27h-5a1.24,1.24,0,0,0,.18.53,1.32,1.32,0,0,0,.37.41,2,2,0,0,0,.52.28,2,2,0,0,0,.6.09,1.83,1.83,0,0,0,1.54-.72l1.59,1a3.07,3.07,0,0,1-1.29,1.1,4.6,4.6,0,0,1-3.35.14,3.58,3.58,0,0,1-1.23-.71,3.28,3.28,0,0,1-.83-1.16,4.18,4.18,0,0,1,0-3.11,3.38,3.38,0,0,1,.8-1.18,3.55,3.55,0,0,1,1.19-.75,4.18,4.18,0,0,1,1.48-.26,3.61,3.61,0,0,1,1.41.26,3,3,0,0,1,1.11.75,3.3,3.3,0,0,1,.72,1.19A4.57,4.57,0,0,1,183.12,124.18ZM181,123.3a1.39,1.39,0,0,0-.35-.94,1.3,1.3,0,0,0-1-.39,1.51,1.51,0,0,0-.61.11,1.46,1.46,0,0,0-.83.71,1.29,1.29,0,0,0-.14.51Z"/><path class="cls-5" d="M188.37,122.5a1.57,1.57,0,0,0-.3,0l-.29,0a1.6,1.6,0,0,0-.77.17,1.62,1.62,0,0,0-.51.4,1.36,1.36,0,0,0-.27.52,1.65,1.65,0,0,0-.09.49v3.57h-2.29v-7h2.21v1h0a2.37,2.37,0,0,1,.75-.88,2,2,0,0,1,1.14-.33h.27l.22,0Z"/><path class="cls-5" d="M193.27,127.58v-3.8a3.24,3.24,0,0,0-.05-.56,1.53,1.53,0,0,0-.16-.47.85.85,0,0,0-.32-.33,1.07,1.07,0,0,0-.51-.11,1.33,1.33,0,0,0-.54.11,1.1,1.1,0,0,0-.38.33,1.48,1.48,0,0,0-.23.49,2.1,2.1,0,0,0-.08.56v3.78h-2.31v-7h2.23v1h0a2.66,2.66,0,0,1,.33-.44,1.92,1.92,0,0,1,.48-.37,2.72,2.72,0,0,1,.6-.26,2.48,2.48,0,0,1,.68-.09,2.55,2.55,0,0,1,1.19.25,2.21,2.21,0,0,1,.79.65,2.54,2.54,0,0,1,.44.92,4.54,4.54,0,0,1,.13,1v4.31Z"/></g></g><g id="Smart" class="cls-6"><g class="cls-6"><path class="cls-5" d="M16.24,3.25a2.38,2.38,0,0,0-1.77-.86,2.61,2.61,0,0,0-.48,0,1.11,1.11,0,0,0-.44.16,1.08,1.08,0,0,0-.33.31.78.78,0,0,0-.13.48.77.77,0,0,0,.1.42.87.87,0,0,0,.31.29,2.38,2.38,0,0,0,.48.23c.19.07.4.15.63.22l1.05.37a4.17,4.17,0,0,1,1,.54,3,3,0,0,1,.74.83,2.47,2.47,0,0,1,.29,1.24A3.26,3.26,0,0,1,17.38,9a3.05,3.05,0,0,1-.85,1,3.57,3.57,0,0,1-1.22.6,5.16,5.16,0,0,1-1.41.2,5.79,5.79,0,0,1-2.06-.38,4.25,4.25,0,0,1-1.65-1.05l1.57-1.6a2.88,2.88,0,0,0,1,.75,2.65,2.65,0,0,0,1.19.3,3,3,0,0,0,.52,0,1.34,1.34,0,0,0,.44-.19,1,1,0,0,0,.3-.33,1.13,1.13,0,0,0,.11-.51.82.82,0,0,0-.14-.47,1.42,1.42,0,0,0-.4-.36,3.21,3.21,0,0,0-.64-.29l-.88-.29A7.45,7.45,0,0,1,12.28,6a3.18,3.18,0,0,1-.81-.54,2.43,2.43,0,0,1-.57-.8,2.61,2.61,0,0,1-.22-1.14A2.89,2.89,0,0,1,11,2.11a2.92,2.92,0,0,1,.89-1A3.84,3.84,0,0,1,13.13.59,5.92,5.92,0,0,1,14.51.42a5,5,0,0,1,1.72.31,4.38,4.38,0,0,1,1.53.91Z"/><path class="cls-5" d="M27.35,10.58V6.78a3.48,3.48,0,0,0,0-.57,1.53,1.53,0,0,0-.15-.47,1,1,0,0,0-.31-.32,1,1,0,0,0-.49-.11,1,1,0,0,0-.51.12,1.2,1.2,0,0,0-.37.34,1.3,1.3,0,0,0-.21.48,2.12,2.12,0,0,0-.07.57v3.76H22.9v-4a1.65,1.65,0,0,0-.24-1,.83.83,0,0,0-.75-.35,1,1,0,0,0-.85.43,1.81,1.81,0,0,0-.3,1.06v3.78H18.45v-7h2.22v1h0A2.59,2.59,0,0,1,21,4.14a1.86,1.86,0,0,1,.45-.37,3.29,3.29,0,0,1,.6-.26,2.73,2.73,0,0,1,.72-.09,2.55,2.55,0,0,1,1.28.3,2.14,2.14,0,0,1,.82.89,2.76,2.76,0,0,1,3.42-.94,2.34,2.34,0,0,1,.78.68,2.66,2.66,0,0,1,.42.92,4,4,0,0,1,.14,1v4.31Z"/><path class="cls-5" d="M30.59,4.56A4,4,0,0,1,32,3.68a5.06,5.06,0,0,1,1.67-.29,4.3,4.3,0,0,1,1.49.22,2.11,2.11,0,0,1,1,.67,2.76,2.76,0,0,1,.55,1.14,6.72,6.72,0,0,1,.18,1.65v3.51H34.8V9.84h0a1.69,1.69,0,0,1-.81.67,2.85,2.85,0,0,1-1.17.24,3.69,3.69,0,0,1-.86-.11,2.53,2.53,0,0,1-.82-.36,2,2,0,0,1-.61-.68,2,2,0,0,1-.24-1,1.78,1.78,0,0,1,.41-1.22,2.61,2.61,0,0,1,1.07-.71,5.61,5.61,0,0,1,1.45-.34,13.76,13.76,0,0,1,1.55-.08V6.1a.86.86,0,0,0-.36-.76,1.63,1.63,0,0,0-.9-.24,2.26,2.26,0,0,0-.95.21,2.84,2.84,0,0,0-.77.5Zm4.21,3h-.29c-.26,0-.51,0-.77,0a3.28,3.28,0,0,0-.68.13,1.43,1.43,0,0,0-.5.29.67.67,0,0,0-.2.5.58.58,0,0,0,.09.33.75.75,0,0,0,.24.23,1.33,1.33,0,0,0,.32.12l.35,0a1.46,1.46,0,0,0,1.07-.38,1.45,1.45,0,0,0,.37-1Z"/><path class="cls-5" d="M42.43,5.5a1.57,1.57,0,0,0-.3,0l-.29,0a1.67,1.67,0,0,0-.78.17,1.69,1.69,0,0,0-.5.4,1.36,1.36,0,0,0-.27.52A1.65,1.65,0,0,0,40.2,7v3.57H37.91v-7h2.21v1h0a2.28,2.28,0,0,1,.75-.88A2,2,0,0,1,42,3.42h.27l.22,0Z"/><path class="cls-5" d="M45.08,5.32V8a1.19,1.19,0,0,0,.19.74.8.8,0,0,0,.67.24l.36,0a1.22,1.22,0,0,0,.32-.09l0,1.68a3.07,3.07,0,0,1-.6.15,4.4,4.4,0,0,1-.73.06,3.61,3.61,0,0,1-1.17-.17,1.82,1.82,0,0,1-.76-.51A2,2,0,0,1,43,9.29a4.08,4.08,0,0,1-.12-1V5.32H41.72V3.61h1.1V1.78h2.26V3.61h1.63V5.32Z"/></g></g><g id="Effective" class="cls-6"><g class="cls-6"><path class="cls-5" d="M0,127.58v-9.91H6.66v2H2.31v1.87H6.43v1.92H2.31v2.06H6.92v2Z"/><path class="cls-5" d="M12,118.69l-.3-.07-.33,0a1,1,0,0,0-.52.11.81.81,0,0,0-.31.3,1.36,1.36,0,0,0-.15.43,2.42,2.42,0,0,0,0,.47v.7H11.9v1.71H10.35v5.26H8.05v-5.26H6.78v-1.71H8.05v-.67a5.45,5.45,0,0,1,.14-1.23,2.67,2.67,0,0,1,.48-1,2.48,2.48,0,0,1,.93-.7,3.58,3.58,0,0,1,1.45-.26,5.65,5.65,0,0,1,.58,0,3.69,3.69,0,0,1,.52.1Z"/><path class="cls-5" d="M16,118.69l-.29-.07-.34,0a1,1,0,0,0-.51.11.75.75,0,0,0-.31.3,1.16,1.16,0,0,0-.16.43,3.57,3.57,0,0,0,0,.47v.7h1.56v1.71H14.32v5.26H12v-5.26H10.75v-1.71H12v-.67a4.94,4.94,0,0,1,.14-1.23,2.67,2.67,0,0,1,.48-1,2.53,2.53,0,0,1,.92-.7,3.62,3.62,0,0,1,1.45-.26,5.46,5.46,0,0,1,.58,0,3.85,3.85,0,0,1,.53.1Z"/><path class="cls-5" d="M23,124.18v.28a2.35,2.35,0,0,1,0,.27H17.89a1.24,1.24,0,0,0,.18.53,1.45,1.45,0,0,0,.37.41A2,2,0,0,0,19,126a2,2,0,0,0,.6.09,1.83,1.83,0,0,0,1.54-.72l1.59,1a3.07,3.07,0,0,1-1.29,1.1,4.6,4.6,0,0,1-3.35.14,3.58,3.58,0,0,1-1.23-.71,3.26,3.26,0,0,1-.82-1.16,3.68,3.68,0,0,1-.31-1.56,3.86,3.86,0,0,1,.3-1.55,3.38,3.38,0,0,1,.8-1.18,3.55,3.55,0,0,1,1.19-.75,4.18,4.18,0,0,1,1.48-.26,3.61,3.61,0,0,1,1.41.26,3,3,0,0,1,1.11.75,3.3,3.3,0,0,1,.72,1.19A4.57,4.57,0,0,1,23,124.18Zm-2.11-.88a1.39,1.39,0,0,0-.35-.94,1.3,1.3,0,0,0-1-.39,1.51,1.51,0,0,0-.61.11,1.39,1.39,0,0,0-.49.28,1.58,1.58,0,0,0-.34.43,1.29,1.29,0,0,0-.14.51Z"/><path class="cls-5" d="M28.5,122.87a1.3,1.3,0,0,0-.53-.41,1.64,1.64,0,0,0-.68-.15,1.53,1.53,0,0,0-.66.14,1.65,1.65,0,0,0-.51.39,2,2,0,0,0-.33.57,2.26,2.26,0,0,0-.11.69,1.9,1.9,0,0,0,.11.68,1.47,1.47,0,0,0,.33.57,1.65,1.65,0,0,0,.51.39,1.69,1.69,0,0,0,.68.14,1.9,1.9,0,0,0,.7-.14,1.29,1.29,0,0,0,.55-.38l1.27,1.55a3,3,0,0,1-1.12.66,4.33,4.33,0,0,1-1.45.24,4.78,4.78,0,0,1-1.54-.25,3.64,3.64,0,0,1-1.25-.74,3.41,3.41,0,0,1-.83-1.17,4.13,4.13,0,0,1,0-3.09,3.41,3.41,0,0,1,.83-1.17,3.64,3.64,0,0,1,1.25-.74,4.22,4.22,0,0,1,1.52-.26,3.67,3.67,0,0,1,.75.07,4.23,4.23,0,0,1,.72.19,3,3,0,0,1,.63.29,2.8,2.8,0,0,1,.49.39Z"/><path class="cls-5" d="M32.52,122.32V125a1.19,1.19,0,0,0,.19.74.82.82,0,0,0,.68.24l.36,0a1.14,1.14,0,0,0,.31-.09l0,1.68a3.27,3.27,0,0,1-.6.15,4.49,4.49,0,0,1-.73.06,3.64,3.64,0,0,1-1.18-.17,1.89,1.89,0,0,1-.76-.51,2,2,0,0,1-.41-.78,3.65,3.65,0,0,1-.13-1v-3H29.16v-1.71h1.11v-1.83h2.25v1.83h1.64v1.71Z"/><path class="cls-5" d="M37,118.39a1.17,1.17,0,0,1-.11.49,1.15,1.15,0,0,1-.28.4,1.27,1.27,0,0,1-.42.27,1.45,1.45,0,0,1-.51.1,1.3,1.3,0,0,1-.93-.37,1.24,1.24,0,0,1-.28-1.38,1.08,1.08,0,0,1,.28-.4,1.51,1.51,0,0,1,.42-.27,1.22,1.22,0,0,1,.51-.1,1.44,1.44,0,0,1,.51.09,1.28,1.28,0,0,1,.7.67A1.18,1.18,0,0,1,37,118.39Zm-2.46,9.19v-7h2.29v7Z"/><path class="cls-5" d="M42.29,127.58H39.82l-2.75-7h2.54l1.47,4.52h0l1.47-4.52H45Z"/><path class="cls-5" d="M52.14,124.18v.28a2.28,2.28,0,0,1,0,.27h-5a1.23,1.23,0,0,0,.17.53,1.49,1.49,0,0,0,.38.41,1.86,1.86,0,0,0,.52.28,2,2,0,0,0,.59.09,1.88,1.88,0,0,0,.93-.2,1.82,1.82,0,0,0,.61-.52l1.6,1a3.16,3.16,0,0,1-1.3,1.1,4.21,4.21,0,0,1-1.86.39,4.32,4.32,0,0,1-1.49-.25,3.53,3.53,0,0,1-1.22-.71,3.28,3.28,0,0,1-.83-1.16,3.84,3.84,0,0,1-.3-1.56,4,4,0,0,1,.29-1.55,3.52,3.52,0,0,1,.8-1.18,3.65,3.65,0,0,1,1.19-.75,4.24,4.24,0,0,1,1.49-.26,3.61,3.61,0,0,1,1.41.26,3,3,0,0,1,1.11.75,3.61,3.61,0,0,1,.72,1.19A4.57,4.57,0,0,1,52.14,124.18ZM50,123.3a1.38,1.38,0,0,0-.34-.94,1.3,1.3,0,0,0-1-.39,1.59,1.59,0,0,0-.62.11,1.49,1.49,0,0,0-.49.28,1.37,1.37,0,0,0-.33.43,1.15,1.15,0,0,0-.14.51Z"/></g></g><g id="Ellipse_113" data-name="Ellipse 113"><circle class="cls-7" cx="100.98" cy="64.58" r="44"/><path class="cls-5" d="M101,108.58a44,44,0,1,1,44-44A44,44,0,0,1,101,108.58Zm0-86.5a42.5,42.5,0,1,0,42.5,42.5A42.55,42.55,0,0,0,101,22.08Z"/></g><g id="Group_17" data-name="Group 17"><g id="Path_29" data-name="Path 29"><path class="cls-5" d="M132.48,35.31a.73.73,0,0,1-.53-.22A.74.74,0,0,1,132,34l17.39-17.38a.74.74,0,0,1,1.06,0,.75.75,0,0,1,0,1.06L133,35.09A.74.74,0,0,1,132.48,35.31Z"/></g><g id="Path_30" data-name="Path 30"><path class="cls-5" d="M54.48,114.31a.73.73,0,0,1-.53-.22A.74.74,0,0,1,54,113L71.34,95.65a.74.74,0,0,1,1.06,0,.75.75,0,0,1,0,1.06L55,114.09A.74.74,0,0,1,54.48,114.31Z"/></g></g><g id="Group_18" data-name="Group 18"><g id="Path_29-2" data-name="Path 29-2"><path class="cls-5" d="M149.37,112.81a.73.73,0,0,1-.53-.22L131.45,95.21a.77.77,0,0,1,0-1.07.75.75,0,0,1,1.06,0l17.39,17.39a.75.75,0,0,1,0,1.06A.74.74,0,0,1,149.37,112.81Z"/></g><g id="Path_30-2" data-name="Path 30-2"><path class="cls-5" d="M70.37,34.81a.73.73,0,0,1-.53-.22L52.45,17.21a.77.77,0,0,1,0-1.07.75.75,0,0,1,1.06,0L70.9,33.53a.75.75,0,0,1,0,1.06A.74.74,0,0,1,70.37,34.81Z"/></g></g></g></g></g></svg>