<svg id="codekago_logo_blue" data-name="codekago logo blue" xmlns="http://www.w3.org/2000/svg" viewBox="0 0 110.164 20.824">
  <defs>
    <style>
      .cls-1 {
        fill: #fff;
      }
    </style>
  </defs>
  <g id="Layer_1" data-name="Layer 1" transform="translate(0)">
    <path id="Path_36" data-name="Path 36" class="cls-1" d="M26.06,10.332l-.212-.085-8-3.048L10.9,4.556a.9.9,0,0,0-.414-.074A3.3,3.3,0,0,0,9.419,4.6,6.127,6.127,0,0,0,5.607,7.009a5.543,5.543,0,0,0-1,4.811,6.159,6.159,0,0,0,5.458,4.566,1.773,1.773,0,0,0,.807-.085c4.991-1.975,9.993-3.918,14.984-5.872l.2-.1M10.747,0h.2a10.768,10.768,0,0,1,3.122.595c.329.117.648.244.966.393l7.55,3.388L31.146,8.2l.159.085v4.131l-.212.106L15.759,19.5q-.382.17-.765.382a8.368,8.368,0,0,1-3.1.871c-.446,0-.9.074-1.349.074a10.407,10.407,0,0,1-5.968-1.869A10.364,10.364,0,0,1,.382,13.189,9.483,9.483,0,0,1,0,10.4a10.194,10.194,0,0,1,3.005-7.21A10.619,10.619,0,0,1,8.5.244,9.632,9.632,0,0,1,10.248,0h.5Z" transform="translate(0.001)"/>
    <path id="Path_37" data-name="Path 37" class="cls-1" d="M101.978,9.981v-.5a3.079,3.079,0,0,0-.372-1.221,2.06,2.06,0,0,0-3.568,0c-.064.117-.117.234-.17.35a4.322,4.322,0,0,0-.234,1.837,3.419,3.419,0,0,0,.34,1.359,2.039,2.039,0,0,0,2.4,1.062,1.933,1.933,0,0,0,1.338-1.189,4.089,4.089,0,0,0,.308-1.688m2.241.3v.34a4.12,4.12,0,0,1-3.526,4.025,5.235,5.235,0,0,1-2.485-.127,3.759,3.759,0,0,1-2.5-2.241,5.543,5.543,0,0,1,0-4.248,3.876,3.876,0,0,1,2.91-2.4,5.1,5.1,0,0,1,2.591.085,3.9,3.9,0,0,1,2.75,2.782,3.972,3.972,0,0,1,.2,1.168,2.185,2.185,0,0,0,0,.276Z" transform="translate(5.904 0.341)"/>
    <path id="Path_38" data-name="Path 38" class="cls-1" d="M91.851,10.143V8.327a.35.35,0,0,0-.106-.265,2.708,2.708,0,0,0-1.3-.775,1.773,1.773,0,0,0-1.763.414,2.124,2.124,0,0,0-.595,1.062,5.1,5.1,0,0,0-.1,2.4,2.719,2.719,0,0,0,.361.977,1.678,1.678,0,0,0,1.37.839,2.549,2.549,0,0,0,2-.743.329.329,0,0,0,.127-.287V10.154m.17-3.526.1-.945h1.9v9.079a5.31,5.31,0,0,1-.159,1.349A3.3,3.3,0,0,1,92.392,18.1a4.863,4.863,0,0,1-1.805.68,9.472,9.472,0,0,1-4.12-.17c-.308-.085-.308-.1-.308-.414V16.759h.181a8.5,8.5,0,0,0,2.729.35,4.449,4.449,0,0,0,1.487-.287A1.922,1.922,0,0,0,91.713,15.7a2.963,2.963,0,0,0,.138-.743c0-.372,0-.733,0-1.062v-.064l-.17.117A3.812,3.812,0,0,1,89.2,14.7a3.377,3.377,0,0,1-2.835-1.667,4.747,4.747,0,0,1-.658-2.071,7.125,7.125,0,0,1,.085-2.018,4.481,4.481,0,0,1,1.189-2.421A3.472,3.472,0,0,1,89.652,5.46a3.005,3.005,0,0,1,2.2,1.062l.127.149h0" transform="translate(5.305 0.338)"/>
    <path id="Path_39" data-name="Path 39" class="cls-1" d="M54.922,10.236V8.282c0-.085,0-.159-.074-.212A2.9,2.9,0,0,0,53.1,7.422a1.827,1.827,0,0,0-1.646.977,2.888,2.888,0,0,0-.361.924,5.5,5.5,0,0,0-.064,1.816,3.186,3.186,0,0,0,.35,1.189,1.71,1.71,0,0,0,1.731.934,2.527,2.527,0,0,0,1.731-.807.329.329,0,0,0,.085-.255V10.236m2.219,4.534H55.187c0-.3-.064-.595-.1-.924l-.1.074A3.377,3.377,0,0,1,52,14.983a3.324,3.324,0,0,1-2.315-1.274,3.9,3.9,0,0,1-.775-1.657,6.372,6.372,0,0,1,.2-3.738A3.791,3.791,0,0,1,50.44,6.466a3.579,3.579,0,0,1,3.94-.319c.181.085.35.2.542.308V1.56h2.124V14.77" transform="translate(3.018 0.097)"/>
    <path id="Path_40" data-name="Path 40" class="cls-1" d="M70.234,14.768H68.11V1.6h2.124V9.458c.085,0,.117-.074.159-.127l2.58-2.74c.191-.2.382-.393.563-.605a.308.308,0,0,1,.212-.1h2.559l-3.865,4.152,3.887,4.726H73.887a.329.329,0,0,1-.287-.138l-3.186-3.791-.159-.191v4.12Z" transform="translate(4.218 0.099)"/>
    <path id="Path_41" data-name="Path 41" class="cls-1" d="M82.087,10.74h-.127c-.34-.053-.669-.117-1.062-.149a3.037,3.037,0,0,0-1.274.127,1.126,1.126,0,0,0-.807,1.062,1.062,1.062,0,0,0,.86,1.168,2.028,2.028,0,0,0,.51.064,2.634,2.634,0,0,0,1.784-.828.287.287,0,0,0,.074-.223V10.772m-4.63-4.736a6.435,6.435,0,0,1,1.5-.467,7.487,7.487,0,0,1,2.124-.117,4.088,4.088,0,0,1,2.124.839A2.6,2.6,0,0,1,84.232,8.16a3.186,3.186,0,0,1,0,.552q0,1.864,0,3.727v2.092h-1.9c0-.3-.064-.605-.1-.934l-.17.149a3.674,3.674,0,0,1-1.837.966,3.324,3.324,0,0,1-2.124-.287A2.559,2.559,0,0,1,76.682,12.3a3.037,3.037,0,0,1,.138-1.412,2.761,2.761,0,0,1,1.816-1.763,4.1,4.1,0,0,1,1.232-.244,7.433,7.433,0,0,1,2.124.212h.1a2.272,2.272,0,0,0,0-.711,1.455,1.455,0,0,0-1.062-1.062,2.942,2.942,0,0,0-1.062-.1,7.189,7.189,0,0,0-2.273.488l-.255.085Z" transform="translate(4.747 0.336)"/>
    <path id="Path_42" data-name="Path 42" class="cls-1" d="M60.868,9.008h3.472A2.124,2.124,0,0,0,63.8,7.554a1.3,1.3,0,0,0-.5-.319,1.71,1.71,0,0,0-1.752.35,2.124,2.124,0,0,0-.669,1.423m5.373,3.472a1.061,1.061,0,0,1,0,.159v1.4c0,.159,0,.17-.159.223a7.911,7.911,0,0,1-1.4.329,9.218,9.218,0,0,1-1.795.117,5.862,5.862,0,0,1-1.742-.308,3.568,3.568,0,0,1-2.389-2.464,5.979,5.979,0,0,1,.127-3.9,3.876,3.876,0,0,1,2.028-2.209,4.014,4.014,0,0,1,2.2-.372A8.049,8.049,0,0,1,64,5.621a3.186,3.186,0,0,1,1.965,1.593,4.938,4.938,0,0,1,.5,1.54,8.911,8.911,0,0,1,.064,1.763,1.456,1.456,0,0,1,0,.2H60.783a2.241,2.241,0,0,0,.17.85,2.124,2.124,0,0,0,1.55,1.274,4.609,4.609,0,0,0,1.572.1,8.994,8.994,0,0,0,2.06-.425h.106" transform="translate(3.623 0.337)"/>
    <path id="Path_43" data-name="Path 43" class="cls-1" d="M45.638,10.081v-.4a3.186,3.186,0,0,0-.4-1.434,1.869,1.869,0,0,0-1.147-.934,2.188,2.188,0,0,0-.786-.085A1.88,1.88,0,0,0,41.837,8a3.186,3.186,0,0,0-.34.648,4.248,4.248,0,0,0-.2,2,3.186,3.186,0,0,0,.319,1.157,2.06,2.06,0,0,0,2.549,1.062,2.007,2.007,0,0,0,1.211-1.232,3.494,3.494,0,0,0,.265-1.55m2.251-.074a5.193,5.193,0,0,1-.457,2.336,3.9,3.9,0,0,1-3.026,2.283,5.161,5.161,0,0,1-2.347-.1,3.77,3.77,0,0,1-2.634-2.3,5.48,5.48,0,0,1,0-4.333,3.865,3.865,0,0,1,2.9-2.336,5.065,5.065,0,0,1,2.58.085,3.918,3.918,0,0,1,2.761,2.846,5.2,5.2,0,0,1,.2,1.519" transform="translate(2.414 0.336)"/>
    <path id="Path_44" data-name="Path 44" class="cls-1" d="M37.94,5.833V7.585l-.191-.064a4.418,4.418,0,0,0-1.816-.3,2.772,2.772,0,0,0-1.317.4,2.124,2.124,0,0,0-.892,1.147,3.844,3.844,0,0,0,0,2.6,2.315,2.315,0,0,0,2.124,1.55,4.821,4.821,0,0,0,2.018-.319l.223-.074v1.752a3.483,3.483,0,0,1-.8.255,6.01,6.01,0,0,1-3.186-.085,3.844,3.844,0,0,1-2.719-3.048,5.522,5.522,0,0,1,.117-2.91,4.12,4.12,0,0,1,3.186-2.91,5.564,5.564,0,0,1,3.186.181l.159.064" transform="translate(1.936 0.337)"/>
  </g>
</svg>
