<svg xmlns="http://www.w3.org/2000/svg" viewBox="0 0 228 258.42"><defs><style>.cls-1{fill:#5cddff;}</style></defs><title>dots2</title><g id="Layer_2" data-name="Layer 2"><g id="Layer_1-2" data-name="Layer 1"><circle class="cls-1" cx="4" cy="4" r="4"/><circle class="cls-1" cx="44" cy="4" r="4"/><circle class="cls-1" cx="84" cy="4" r="4"/><circle class="cls-1" cx="124" cy="4" r="4"/><circle class="cls-1" cx="164" cy="4" r="4"/><circle class="cls-1" cx="204" cy="4" r="4"/><circle class="cls-1" cx="24" cy="37.79" r="4"/><circle class="cls-1" cx="64" cy="37.79" r="4"/><circle class="cls-1" cx="104" cy="37.79" r="4"/><circle class="cls-1" cx="144" cy="37.79" r="4"/><circle class="cls-1" cx="184" cy="37.79" r="4"/><circle class="cls-1" cx="224" cy="37.79" r="4"/><circle class="cls-1" cx="4" cy="76.21" r="4"/><circle class="cls-1" cx="44" cy="76.21" r="4"/><circle class="cls-1" cx="84" cy="76.21" r="4"/><circle class="cls-1" cx="124" cy="76.21" r="4"/><circle class="cls-1" cx="164" cy="76.21" r="4"/><circle class="cls-1" cx="204" cy="76.21" r="4"/><circle class="cls-1" cx="24" cy="110" r="4"/><circle class="cls-1" cx="64" cy="110" r="4"/><circle class="cls-1" cx="104" cy="110" r="4"/><circle class="cls-1" cx="144" cy="110" r="4"/><circle class="cls-1" cx="184" cy="110" r="4"/><circle class="cls-1" cx="224" cy="110" r="4"/><circle class="cls-1" cx="4" cy="148.42" r="4"/><circle class="cls-1" cx="44" cy="148.42" r="4"/><circle class="cls-1" cx="84" cy="148.42" r="4"/><circle class="cls-1" cx="124" cy="148.42" r="4"/><circle class="cls-1" cx="164" cy="148.42" r="4"/><circle class="cls-1" cx="204" cy="148.42" r="4"/><circle class="cls-1" cx="24" cy="182.21" r="4"/><circle class="cls-1" cx="64" cy="182.21" r="4"/><circle class="cls-1" cx="104" cy="182.21" r="4"/><circle class="cls-1" cx="144" cy="182.21" r="4"/><circle class="cls-1" cx="184" cy="182.21" r="4"/><circle class="cls-1" cx="224" cy="182.21" r="4"/><circle class="cls-1" cx="4" cy="220.63" r="4"/><circle class="cls-1" cx="44" cy="220.63" r="4"/><circle class="cls-1" cx="84" cy="220.63" r="4"/><circle class="cls-1" cx="124" cy="220.63" r="4"/><circle class="cls-1" cx="164" cy="220.63" r="4"/><circle class="cls-1" cx="204" cy="220.63" r="4"/><circle class="cls-1" cx="24" cy="254.42" r="4"/><circle class="cls-1" cx="64" cy="254.42" r="4"/><circle class="cls-1" cx="104" cy="254.42" r="4"/><circle class="cls-1" cx="144" cy="254.42" r="4"/><circle class="cls-1" cx="184" cy="254.42" r="4"/><circle class="cls-1" cx="224" cy="254.42" r="4"/></g></g></svg>