<svg xmlns="http://www.w3.org/2000/svg" viewBox="0 0 222.67 278.33"><defs><style>.cls-1{fill:#5cddff;}</style></defs><title>dots</title><g id="Layer_2" data-name="Layer 2"><g id="Layer_1-2" data-name="Layer 1"><circle class="cls-1" cx="4" cy="4" r="4"/><circle class="cls-1" cx="46.93" cy="4" r="4"/><circle class="cls-1" cx="89.87" cy="4" r="4"/><circle class="cls-1" cx="132.8" cy="4" r="4"/><circle class="cls-1" cx="175.73" cy="4" r="4"/><circle class="cls-1" cx="218.67" cy="4" r="4"/><circle class="cls-1" cx="4" cy="37.79" r="4"/><circle class="cls-1" cx="46.93" cy="37.79" r="4"/><circle class="cls-1" cx="89.87" cy="37.79" r="4"/><circle class="cls-1" cx="132.8" cy="37.79" r="4"/><circle class="cls-1" cx="175.73" cy="37.79" r="4"/><circle class="cls-1" cx="218.67" cy="37.79" r="4"/><circle class="cls-1" cx="4" cy="71.58" r="4"/><circle class="cls-1" cx="46.93" cy="71.58" r="4"/><circle class="cls-1" cx="89.87" cy="71.58" r="4"/><circle class="cls-1" cx="132.8" cy="71.58" r="4"/><circle class="cls-1" cx="175.73" cy="71.58" r="4"/><circle class="cls-1" cx="218.67" cy="71.58" r="4"/><circle class="cls-1" cx="4" cy="105.37" r="4"/><circle class="cls-1" cx="46.93" cy="105.37" r="4"/><circle class="cls-1" cx="89.87" cy="105.37" r="4"/><circle class="cls-1" cx="132.8" cy="105.37" r="4"/><circle class="cls-1" cx="175.73" cy="105.37" r="4"/><circle class="cls-1" cx="218.67" cy="105.37" r="4"/><circle class="cls-1" cx="4" cy="139.17" r="4"/><circle class="cls-1" cx="46.93" cy="139.17" r="4"/><circle class="cls-1" cx="89.87" cy="139.17" r="4"/><circle class="cls-1" cx="132.8" cy="139.17" r="4"/><circle class="cls-1" cx="175.73" cy="139.17" r="4"/><circle class="cls-1" cx="218.67" cy="139.17" r="4"/><circle class="cls-1" cx="4" cy="172.96" r="4"/><circle class="cls-1" cx="46.93" cy="172.96" r="4"/><circle class="cls-1" cx="89.87" cy="172.96" r="4"/><circle class="cls-1" cx="132.8" cy="172.96" r="4"/><circle class="cls-1" cx="175.73" cy="172.96" r="4"/><circle class="cls-1" cx="218.67" cy="172.96" r="4"/><circle class="cls-1" cx="4" cy="206.75" r="4"/><circle class="cls-1" cx="46.93" cy="206.75" r="4"/><circle class="cls-1" cx="89.87" cy="206.75" r="4"/><circle class="cls-1" cx="132.8" cy="206.75" r="4"/><circle class="cls-1" cx="175.73" cy="206.75" r="4"/><circle class="cls-1" cx="218.67" cy="206.75" r="4"/><circle class="cls-1" cx="4" cy="240.54" r="4"/><circle class="cls-1" cx="46.93" cy="240.54" r="4"/><circle class="cls-1" cx="89.87" cy="240.54" r="4"/><circle class="cls-1" cx="132.8" cy="240.54" r="4"/><circle class="cls-1" cx="175.73" cy="240.54" r="4"/><circle class="cls-1" cx="218.67" cy="240.54" r="4"/><circle class="cls-1" cx="4" cy="274.33" r="4"/><circle class="cls-1" cx="46.93" cy="274.33" r="4"/><circle class="cls-1" cx="89.87" cy="274.33" r="4"/><circle class="cls-1" cx="132.8" cy="274.33" r="4"/><circle class="cls-1" cx="175.73" cy="274.33" r="4"/><circle class="cls-1" cx="218.67" cy="274.33" r="4"/></g></g></svg>